PathFileType	4	(X/Y/Z)	outputs\dynamic_markers.trc
DataRate	CameraRate	NumFrames	NumMarkers	Units	OrigDataRate	OrigDataStartFrame	OrigNumFrames
360.000000	360.000000	4	45	m	360.000000	241	643
Frame#	Time	C7			CLAV			LANK			LASI			LBHD			LELB			LFHD			LFIN			LFRM			LHEE			LKNE			LMANK			LMELB			LMKNE			LPSI			LSHO			LTHI			LTIB			LTOE			LUPA			LWRA			LWRB			RANK			RASI			RBAK			RBHD			RELB			RFHD			RFIN			RFRM			RHEE			RKNE			RMANK			RMELB			RMKNE			RPSI			RSHO			RTHI			RTIB			RTOE			RUPA			RWRA			RWRB			STRN			T10			
		X1	Y1	Z1	X2	Y2	Z2	X3	Y3	Z3	X4	Y4	Z4	X5	Y5	Z5	X6	Y6	Z6	X7	Y7	Z7	X8	Y8	Z8	X9	Y9	Z9	X10	Y10	Z10	X11	Y11	Z11	X12	Y12	Z12	X13	Y13	Z13	X14	Y14	Z14	X15	Y15	Z15	X16	Y16	Z16	X17	Y17	Z17	X18	Y18	Z18	X19	Y19	Z19	X20	Y20	Z20	X21	Y21	Z21	X22	Y22	Z22	X23	Y23	Z23	X24	Y24	Z24	X25	Y25	Z25	X26	Y26	Z26	X27	Y27	Z27	X28	Y28	Z28	X29	Y29	Z29	X30	Y30	Z30	X31	Y31	Z31	X32	Y32	Z32	X33	Y33	Z33	X34	Y34	Z34	X35	Y35	Z35	X36	Y36	Z36	X37	Y37	Z37	X38	Y38	Z38	X39	Y39	Z39	X40	Y40	Z40	X41	Y41	Z41	X42	Y42	Z42	X43	Y43	Z43	X44	Y44	Z44	X45	Y45	Z45	

242	0.6694444444444445	0.1432730157943018	1.54562970304384	0.1271360476631028	0.09865714862721442	1.462072881562083	0.2558374578040104	0.3308010827908254	0.687927669622995	0.5403825623237292	0.2822374358284991	1.129875115326875	0.2836419915796317	0.1106599996490829	1.684245079726862	0.1389573942505323	0.369110502583432	1.286669736335716	0.5174350870147384	0.2192284711320058	1.707315491823255	0.2163156561152872	0.06948515224438369	1.454277076714176	0.5288862143920451	0.2205594464094196	1.34721086327306	0.5365060089825702	0.298357104140373	0.7438524304343631	0.4499473845020913	0.2704364908892955	1.149523714459135	0.672559374728262	0.2189888434162512	0.6782687179118718	0.5179486386940079	0.3280884690504313	1.214779713611821	0.4771941115520913	0.1391518557777211	1.097584030757719	0.6548981527673671	0.3335777238963499	1.09779574584038	0.08728409162568274	0.2715996713057563	1.512818825112731	0.2601059249282949	0.3422542297427011	1.149923886156565	0.4536533876862674	0.3135176199835609	0.9974009482243261	0.6344902063656037	0.2203723361034917	0.6030091651575694	0.6621762692022402	0.3207655328649001	1.401926916411895	0.3975095711700129	0.1299357416315896	1.401949993486481	0.4731573558232345	0.1028751151806427	1.349845345692037	0.5246665940831864	0.009563589546110893	0.05223697252988076	0.1434021778096071	0.07388039678159239	1.032848788246024	0.14718159129375	0.1499003470177316	1.36625120487952	0.01107004799586806	0.02192578769463771	1.688693036969107	0.2473279011004854	-0.1912725230313854	1.19907268168637	0.1064464316451608	0.1260572480799593	1.713539731050846	0.3426010985842541	-0.1347038581892042	1.422773750513712	0.3379949999520988	-0.170345806855018	1.306886235188037	0.2375463943082778	0.07015207061398769	0.0689811448961735	0.07541499924437947	0.01391833512033871	0.535608711211381	0.2992558335775333	0.1220825913373294	0.06388270178614974	0.174560940827942	-0.1191497562333737	1.147348285759445	0.1279475563295593	0.124439662841512	0.516946015937354	0.3418365055138345	0.2404564279540898	1.063535382967101	0.0336598169552143	-0.0356879274294576	1.517141231776063	0.1001476151695351	0.05423760660531179	0.7257226913851562	0.1827404961510129	-0.002588255495047861	0.3278250038334234	0.1969710527866637	0.06463902827261613	0.0753730223862371	0.3124626669881364	-0.1204723456170902	1.373580511417996	0.07104515192657876	-0.08536511823017107	1.373235074458175	0.3111896495123053	-0.157790783529308	1.351431689850713	0.3355651888109574	0.09081002220019685	1.280415602209795	0.2516904435542758	0.2654745519535776	1.176817365434579	0.04438687841942814	
243	0.6722222222222223	0.1439342208608023	1.545417952687699	0.1270880107105252	0.09917925524044961	1.461925799731988	0.2557808727198587	0.3306962785358914	0.6909735688309494	0.5399987861879385	0.2829135596283985	1.130203779954352	0.2836820594756436	0.1112153881542589	1.684031787568249	0.1388690621475579	0.3691971376257883	1.287824118502835	0.5184601720459751	0.2197372315407269	1.707156517909409	0.2162852352849309	0.06970246986033729	1.455719216723806	0.528570325709906	0.2206565063969071	1.348574371330175	0.5369694397931956	0.29850840794057	0.746840174756745	0.4494273602184026	0.2697420748356199	1.152286535938024	0.6720256207511083	0.2189707950984239	0.6811732391809896	0.5171458212991927	0.3281940910883434	1.215770351873147	0.4784990773051028	0.1384312357524047	1.100330971975044	0.6540149590643236	0.3345987054340458	1.097708425579851	0.08755207164912446	0.2720321843382467	1.512827256600372	0.2601745020052006	0.3424122461888876	1.151262870566334	0.4534164087576144	0.3131088755333143	1.000416806248122	0.6342481941805659	0.2199177920014908	0.6059426399442099	0.6613828602315397	0.3210261435530568	1.40256892316818	0.3979403910323857	0.1302278643523666	1.403125119044486	0.4731933966333552	0.1029991623481847	1.351234421760984	0.5247971836565652	0.009545348630858602	0.05220692886012405	0.1433928293471327	0.07479350571493337	1.032755940824448	0.1471500280506689	0.1507990230052689	1.366036257415099	0.01110397941385369	0.02242318118426771	1.68845075414166	0.2471915396802238	-0.190976936772861	1.199294557559121	0.1066095905400018	0.1264918476969424	1.713350686497696	0.3425206670778123	-0.1343205366182153	1.423869764267732	0.3372893221425265	-0.1700501386501697	1.307610686278778	0.237286675978039	0.07013455292795291	0.06895696934170903	0.07540183098760002	0.01470682626891087	0.5355792116959514	0.2995023702635641	0.1220904218769833	0.06385355376765342	0.174517056242058	-0.1189907976550759	1.147499641744806	0.1284457840911977	0.1252917419716618	0.5167831847077877	0.3418795018817929	0.2415657567132093	1.063320733026524	0.03388847328423694	-0.03486365704705987	1.517031434922276	0.09985840871073745	0.0551455890454854	0.7256617255610177	0.1830058896700828	-0.002194738857110465	0.3278595643541762	0.1971312503849863	0.06471231927260446	0.07538826473006038	0.3124332692747397	-0.1197926348090919	1.373582614510403	0.07083683339160453	-0.08504728210268123	1.3741193635928	0.3107671223070504	-0.1575357687197493	1.352571117875772	0.3351433761775657	0.09137942260965691	1.2802920276932	0.2516232988548461	0.2664860467972296	1.176721266960293	0.04450044503852327	
244	0.675	0.1446022463492656	1.545191948483772	0.1270423227069662	0.09970929327789881	1.461765945294635	0.2557267384962649	0.3306157298269566	0.6939650988329964	0.5395843783129199	0.2836006779767009	1.13051922908557	0.2837224349232172	0.1117791438336816	1.683803820824928	0.1387830232756828	0.3692921690908151	1.288953018320457	0.5194723298375473	0.2202524788486293	1.706984049840699	0.216257356636188	0.06992499735047222	1.457123014914907	0.5282472162336305	0.2207617549880127	1.34990379998495	0.537420953266623	0.2986810038527549	0.7497794119930844	0.4488830915346142	0.2690473019011133	1.154987323807622	0.6714823682841411	0.2189803102243124	0.6840184674285997	0.5163132208844796	0.3283129275612944	1.216739010212049	0.4797857334842789	0.1377139109108234	1.103013448789329	0.6531116226245998	0.3356308899950975	1.097600085743736	0.087824079920325	0.2724730897324231	1.51281874334406	0.2602458579900915	0.3425827791551633	1.152561279951156	0.4531835865323053	0.3127063592956284	1.003375136531161	0.6339914058819075	0.2194961780752217	0.6088060237339503	0.6605525817876556	0.3212935185398248	1.403186262056753	0.3983685771719244	0.1305299519554487	1.404264756556171	0.4732217446616535	0.1031315204853456	1.352585802396212	0.5249159547360432	0.009527096168767563	0.05217695629071965	0.1433836851688663	0.07571887276000133	1.032646540125245	0.1471260102298544	0.1517026580247071	1.365805511251322	0.01114106370850278	0.02292730721799533	1.688193302120967	0.2470563358611584	-0.1906755817375954	1.199503895973318	0.1067801436919073	0.126931772351689	1.71314801994819	0.3424423275013869	-0.1339075796068245	1.424934199904439	0.3365956419348682	-0.1697380865924144	1.308312907264557	0.2370382782681437	0.07011701743395103	0.06893362897914795	0.07538932728622139	0.01548809599157945	0.5355425194455889	0.2997597629624528	0.122098461887538	0.06382442753227142	0.1744738299006763	-0.1188249881313112	1.147638514668733	0.1289437352879076	0.1261387570100058	0.5166121676818293	0.3419334637791474	0.2426835667906718	1.063089317820912	0.03412043694748457	-0.0340334680253879	1.516907368072523	0.09957268964139052	0.056061095200361	0.7255866534740956	0.1832783072201727	-0.001805967544236125	0.3278896919691727	0.1973002203409388	0.06478501424221828	0.07539653176504436	0.3124057035534349	-0.1191046651294004	1.373567750226693	0.07063014318830992	-0.08470515018242997	1.374969561988027	0.3103574182697966	-0.1572594033676682	1.353680907208388	0.3347301372081274	0.09195758123091481	1.280156010609791	0.2515652381988195	0.267503107965043	1.17660902452394	0.04461671393273218	
245	0.6777777777777778	0.1452770307676396	1.544951475454708	0.1269988923552119	0.1002472089261093	1.461593118763589	0.2556749247355576	0.3305590113574023	0.6969011940684744	0.5391403423196093	0.2842984285109128	1.130821688270905	0.2837629005834704	0.1123513152144581	1.683561277960989	0.1386992303644106	0.3693953183314346	1.290056099089006	0.520471797999736	0.2207743412039628	1.706797916057479	0.2162319814230096	0.07015260247950821	1.458488108372457	0.5279174047238128	0.2208749359622972	1.351198801707088	0.5378608668445964	0.2988751805567082	0.7526692440293973	0.4483155209722496	0.2683526352725323	1.15762560387343	0.670930553676945	0.2190169514035006	0.6868043011605508	0.5154517269635656	0.328444707988831	1.217685180075363	0.4810542897186859	0.1370003815100679	1.10563075826881	0.6521893615475215	0.3366745554661075	1.097470875644213	0.08809996195234109	0.2729222275343437	1.512792994521416	0.2603199258661032	0.3427651723081146	1.153820378419812	0.4529549823088374	0.3123096394304479	1.00627445623296	0.633720179595756	0.2191063229334868	0.6115993167304268	0.6596864418000532	0.3215675048365136	1.403778636124504	0.3987942404295016	0.1308415343517401	1.405368551438409	0.4732427184851853	0.1032716452899074	1.353899326879363	0.5250238642889551	0.009509087831807834	0.05214765104623392	0.1433749832128536	0.07665709321988586	1.032520391562859	0.1471099763463677	0.1526107230841004	1.365558810771331	0.01118105353561369	0.02343829201575277	1.687920639940821	0.2469223260703028	-0.1903685029362795	1.199700653183101	0.1069586107791652	0.1273772242827516	1.712931403918729	0.3423660722379253	-0.1334646223472018	1.425967161341875	0.335914424552505	-0.1694095869248647	1.308993009368235	0.2368017160274562	0.07009970555655784	0.06891145505573766	0.07537762959773461	0.01626105998431867	0.5354992025066022	0.3000281644933335	0.1221068371585468	0.06379552245171716	0.1744316285173765	-0.1186524423155517	1.147764773009303	0.1294418559680887	0.1269790183509302	0.5164337311123528	0.3419995070608017	0.2438099890940754	1.062841375771724	0.0343552037857721	-0.03319762701643895	1.516768959295194	0.09929054377874884	0.05698392973257906	0.7254977462804529	0.183557761697193	-0.001422045192634645	0.3279159983638655	0.1974778231713089	0.0648569844877942	0.07539731035455557	0.3123803737489623	-0.1184088191043243	1.373535918875086	0.07042570128520728	-0.08433851369559608	1.37578567478985	0.3099610711152287	-0.1569617074680714	1.354761236233323	0.3343256197406513	0.09254449446778915	1.280007296101725	0.2515161400276169	0.268526015683612	1.176480640962376	0.04473544653301632	
